<svg width="234" height="277" viewBox="0 0 234 277" fill="none" xmlns="http://www.w3.org/2000/svg">
<rect width="234" height="276.944" rx="5" fill="white"/>
<path d="M33.9616 109.787H29.2637V108.854L31.4809 106.491C31.7853 106.159 32.0096 105.869 32.154 105.621C32.3015 105.373 32.3752 105.137 32.3752 104.915C32.3752 104.61 32.2984 104.372 32.1446 104.199C31.9908 104.023 31.7711 103.935 31.4856 103.935C31.178 103.935 30.9348 104.042 30.7559 104.256C30.5802 104.466 30.4923 104.743 30.4923 105.089H29.1272C29.1272 104.671 29.2261 104.29 29.4238 103.945C29.6246 103.6 29.9071 103.33 30.2711 103.135C30.6351 102.937 31.0478 102.839 31.5091 102.839C32.2152 102.839 32.7628 103.008 33.1519 103.347C33.5442 103.686 33.7403 104.165 33.7403 104.783C33.7403 105.122 33.6525 105.467 33.4767 105.818C33.301 106.17 32.9997 106.579 32.5729 107.047L31.0148 108.69H33.9616V109.787ZM35.9186 106.416L36.314 102.933H40.1551V104.067H37.4296L37.2601 105.541C37.5834 105.368 37.927 105.282 38.291 105.282C38.9437 105.282 39.4553 105.484 39.8256 105.889C40.1959 106.294 40.381 106.86 40.381 107.588C40.381 108.031 40.2869 108.428 40.0986 108.779C39.9134 109.128 39.6467 109.399 39.2984 109.594C38.95 109.785 38.5389 109.881 38.0651 109.881C37.6508 109.881 37.2664 109.798 36.9118 109.631C36.5572 109.462 36.2763 109.225 36.0692 108.92C35.8652 108.616 35.7569 108.269 35.7444 107.88H37.0907C37.1189 108.166 37.2178 108.388 37.3872 108.549C37.5598 108.705 37.7842 108.784 38.0604 108.784C38.3679 108.784 38.6048 108.674 38.7711 108.454C38.9375 108.232 39.0206 107.918 39.0206 107.513C39.0206 107.124 38.9249 106.826 38.7335 106.619C38.5421 106.411 38.2706 106.308 37.9191 106.308C37.5959 106.308 37.3339 106.393 37.133 106.562L37.0012 106.684L35.9186 106.416Z" fill="#E6E6E6"/>
<path d="M62.883 109.787H58.1851V108.854L60.4022 106.491C60.7067 106.159 60.931 105.869 61.0754 105.621C61.2229 105.373 61.2966 105.137 61.2966 104.915C61.2966 104.61 61.2197 104.372 61.066 104.199C60.9122 104.023 60.6925 103.935 60.407 103.935C60.0994 103.935 59.8562 104.042 59.6773 104.256C59.5016 104.466 59.4137 104.743 59.4137 105.089H58.0486C58.0486 104.671 58.1475 104.29 58.3452 103.945C58.546 103.6 58.8285 103.33 59.1925 103.135C59.5565 102.937 59.9692 102.839 60.4305 102.839C61.1366 102.839 61.6842 103.008 62.0733 103.347C62.4656 103.686 62.6617 104.165 62.6617 104.783C62.6617 105.122 62.5739 105.467 62.3981 105.818C62.2224 106.17 61.9211 106.579 61.4943 107.047L59.9362 108.69H62.883V109.787ZM68.328 102.862V103.982H68.1962C67.5811 103.992 67.0853 104.152 66.7087 104.463C66.3353 104.773 66.1109 105.205 66.0356 105.757C66.3996 105.387 66.8593 105.202 67.4148 105.202C68.0111 105.202 68.4849 105.415 68.8364 105.842C69.1879 106.269 69.3636 106.83 69.3636 107.527C69.3636 107.973 69.2663 108.376 69.0718 108.737C68.8803 109.098 68.6073 109.379 68.2527 109.579C67.9012 109.78 67.5027 109.881 67.0571 109.881C66.3353 109.881 65.7516 109.63 65.306 109.128C64.8635 108.625 64.6422 107.955 64.6422 107.118V106.628C64.6422 105.884 64.7819 105.228 65.0612 104.66C65.3436 104.089 65.7469 103.648 66.2709 103.338C66.7982 103.024 67.4085 102.865 68.1021 102.862H68.328ZM67.0006 106.294C66.7809 106.294 66.5816 106.352 66.4027 106.468C66.2239 106.581 66.0921 106.732 66.0073 106.92V107.334C66.0073 107.789 66.0968 108.145 66.2757 108.403C66.4545 108.657 66.7056 108.784 67.0288 108.784C67.3207 108.784 67.556 108.669 67.7349 108.44C67.9169 108.208 68.0079 107.908 68.0079 107.541C68.0079 107.168 67.9169 106.866 67.7349 106.637C67.5529 106.408 67.3081 106.294 67.0006 106.294Z" fill="#E6E6E6"/>
<path d="M90.0515 109.787H85.3537V108.854L87.5708 106.491C87.8752 106.159 88.0996 105.869 88.244 105.621C88.3915 105.373 88.4652 105.137 88.4652 104.915C88.4652 104.61 88.3883 104.372 88.2346 104.199C88.0808 104.023 87.8611 103.935 87.5755 103.935C87.268 103.935 87.0248 104.042 86.8459 104.256C86.6702 104.466 86.5823 104.743 86.5823 105.089H85.2172C85.2172 104.671 85.3161 104.29 85.5138 103.945C85.7146 103.6 85.997 103.33 86.3611 103.135C86.7251 102.937 87.1378 102.839 87.5991 102.839C88.3052 102.839 88.8528 103.008 89.2419 103.347C89.6342 103.686 89.8303 104.165 89.8303 104.783C89.8303 105.122 89.7424 105.467 89.5667 105.818C89.391 106.17 89.0897 106.579 88.6629 107.047L87.1048 108.69H90.0515V109.787ZM96.4663 103.695L93.8161 109.787H92.3804L95.0353 104.034H91.6272V102.933H96.4663V103.695Z" fill="#E6E6E6"/>
<path d="M114.591 109.787H109.893V108.854L112.11 106.491C112.415 106.159 112.639 105.869 112.783 105.621C112.931 105.373 113.005 105.137 113.005 104.915C113.005 104.61 112.928 104.372 112.774 104.199C112.62 104.023 112.4 103.935 112.115 103.935C111.807 103.935 111.564 104.042 111.385 104.256C111.209 104.466 111.122 104.743 111.122 105.089H109.757C109.757 104.671 109.855 104.29 110.053 103.945C110.254 103.6 110.536 103.33 110.9 103.135C111.264 102.937 111.677 102.839 112.138 102.839C112.844 102.839 113.392 103.008 113.781 103.347C114.173 103.686 114.37 104.165 114.37 104.783C114.37 105.122 114.282 105.467 114.106 105.818C113.93 106.17 113.629 106.579 113.202 107.047L111.644 108.69H114.591V109.787ZM120.813 104.754C120.813 105.087 120.729 105.382 120.563 105.639C120.397 105.897 120.168 106.102 119.876 106.256C120.208 106.416 120.472 106.637 120.667 106.92C120.861 107.199 120.959 107.529 120.959 107.908C120.959 108.517 120.751 108.999 120.337 109.353C119.923 109.705 119.36 109.881 118.647 109.881C117.935 109.881 117.37 109.703 116.953 109.349C116.535 108.994 116.327 108.514 116.327 107.908C116.327 107.529 116.424 107.198 116.618 106.915C116.813 106.633 117.075 106.413 117.405 106.256C117.113 106.102 116.884 105.897 116.717 105.639C116.554 105.382 116.473 105.087 116.473 104.754C116.473 104.171 116.667 103.706 117.056 103.361C117.445 103.013 117.974 102.839 118.643 102.839C119.308 102.839 119.835 103.011 120.224 103.356C120.616 103.698 120.813 104.165 120.813 104.754ZM119.593 107.809C119.593 107.511 119.507 107.273 119.335 107.094C119.162 106.915 118.93 106.826 118.638 106.826C118.349 106.826 118.118 106.915 117.946 107.094C117.773 107.27 117.687 107.508 117.687 107.809C117.687 108.101 117.772 108.337 117.941 108.516C118.111 108.694 118.346 108.784 118.647 108.784C118.942 108.784 119.173 108.698 119.339 108.525C119.509 108.352 119.593 108.114 119.593 107.809ZM119.452 104.82C119.452 104.554 119.382 104.34 119.24 104.18C119.099 104.017 118.9 103.935 118.643 103.935C118.388 103.935 118.191 104.014 118.049 104.171C117.908 104.328 117.838 104.544 117.838 104.82C117.838 105.093 117.908 105.313 118.049 105.479C118.191 105.646 118.39 105.729 118.647 105.729C118.905 105.729 119.102 105.646 119.24 105.479C119.382 105.313 119.452 105.093 119.452 104.82Z" fill="#E6E6E6"/>
<path d="M147.377 109.787H146.017V104.543L144.393 105.046V103.94L147.231 102.923H147.377V109.787Z" fill="#E6E6E6"/>
<path d="M175.063 109.787H170.365V108.854L172.582 106.491C172.886 106.159 173.111 105.869 173.255 105.621C173.403 105.373 173.476 105.137 173.476 104.915C173.476 104.61 173.4 104.372 173.246 104.199C173.092 104.023 172.872 103.935 172.587 103.935C172.279 103.935 172.036 104.042 171.857 104.256C171.681 104.466 171.594 104.743 171.594 105.089H170.228C170.228 104.671 170.327 104.29 170.525 103.945C170.726 103.6 171.008 103.33 171.372 103.135C171.736 102.937 172.149 102.839 172.61 102.839C173.316 102.839 173.864 103.008 174.253 103.347C174.645 103.686 174.842 104.165 174.842 104.783C174.842 105.122 174.754 105.467 174.578 105.818C174.402 106.17 174.101 106.579 173.674 107.047L172.116 108.69H175.063V109.787Z" fill="#999999"/>
<path d="M196.288 105.757H197.013C197.358 105.757 197.614 105.671 197.78 105.498C197.947 105.326 198.03 105.097 198.03 104.811C198.03 104.535 197.947 104.32 197.78 104.166C197.617 104.012 197.391 103.935 197.103 103.935C196.842 103.935 196.624 104.008 196.448 104.152C196.272 104.293 196.185 104.478 196.185 104.707H194.824C194.824 104.35 194.92 104.03 195.111 103.747C195.306 103.462 195.576 103.239 195.921 103.079C196.269 102.919 196.652 102.839 197.07 102.839C197.795 102.839 198.363 103.013 198.774 103.361C199.185 103.706 199.39 104.183 199.39 104.792C199.39 105.106 199.295 105.395 199.103 105.658C198.912 105.922 198.661 106.124 198.35 106.266C198.736 106.404 199.023 106.611 199.211 106.887C199.403 107.163 199.499 107.489 199.499 107.866C199.499 108.475 199.276 108.963 198.83 109.33C198.388 109.697 197.801 109.881 197.07 109.881C196.385 109.881 195.825 109.7 195.389 109.339C194.956 108.978 194.739 108.501 194.739 107.908H196.1C196.1 108.166 196.196 108.376 196.387 108.539C196.582 108.702 196.82 108.784 197.103 108.784C197.426 108.784 197.678 108.699 197.86 108.53C198.046 108.357 198.138 108.13 198.138 107.847C198.138 107.163 197.762 106.821 197.008 106.821H196.288V105.757Z" fill="#999999"/>
<path d="M36.7941 141.387H37.5708V142.484H36.7941V143.966H35.4337V142.484H32.6234L32.5622 141.627L35.4195 137.113H36.7941V141.387ZM33.9179 141.387H35.4337V138.967L35.3442 139.123L33.9179 141.387Z" fill="#999999"/>
<path d="M61.8932 140.596L62.2886 137.113H66.1297V138.247H63.4042L63.2347 139.72C63.558 139.548 63.9016 139.461 64.2656 139.461C64.9184 139.461 65.4299 139.664 65.8002 140.069C66.1705 140.474 66.3556 141.04 66.3556 141.768C66.3556 142.211 66.2615 142.607 66.0732 142.959C65.888 143.307 65.6213 143.579 65.273 143.773C64.9246 143.965 64.5135 144.06 64.0397 144.06C63.6254 144.06 63.241 143.977 62.8864 143.811C62.5318 143.642 62.2509 143.405 62.0438 143.1C61.8398 142.796 61.7315 142.449 61.719 142.06H63.0653C63.0935 142.345 63.1924 142.568 63.3618 142.728C63.5344 142.885 63.7588 142.964 64.035 142.964C64.3425 142.964 64.5794 142.854 64.7458 142.634C64.9121 142.411 64.9952 142.098 64.9952 141.693C64.9952 141.304 64.8995 141.005 64.7081 140.798C64.5167 140.591 64.2452 140.488 63.8937 140.488C63.5705 140.488 63.3085 140.572 63.1076 140.742L62.9758 140.864L61.8932 140.596Z" fill="#999999"/>
<path d="M92.5498 137.042V138.162H92.418C91.8029 138.172 91.3071 138.332 90.9305 138.642C90.5571 138.953 90.3327 139.385 90.2574 139.937C90.6214 139.567 91.0812 139.381 91.6366 139.381C92.2329 139.381 92.7067 139.595 93.0582 140.022C93.4097 140.448 93.5854 141.01 93.5854 141.707C93.5854 142.152 93.4881 142.556 93.2936 142.917C93.1021 143.277 92.8291 143.558 92.4745 143.759C92.123 143.96 91.7245 144.06 91.2789 144.06C90.5571 144.06 89.9734 143.809 89.5278 143.307C89.0853 142.805 88.864 142.135 88.864 141.297V140.808C88.864 140.064 89.0037 139.408 89.283 138.84C89.5654 138.269 89.9687 137.828 90.4927 137.517C91.02 137.204 91.6303 137.045 92.3239 137.042H92.5498ZM91.2224 140.474C91.0027 140.474 90.8034 140.532 90.6245 140.648C90.4457 140.761 90.3139 140.911 90.2291 141.1V141.514C90.2291 141.969 90.3186 142.325 90.4975 142.582C90.6763 142.837 90.9274 142.964 91.2506 142.964C91.5425 142.964 91.7778 142.849 91.9567 142.62C92.1387 142.388 92.2297 142.088 92.2297 141.721C92.2297 141.348 92.1387 141.046 91.9567 140.817C91.7747 140.588 91.5299 140.474 91.2224 140.474Z" fill="#999999"/>
<path d="M118.059 137.875L115.409 143.966H113.973L116.628 138.214H113.22V137.113H118.059V137.875Z" fill="#999999"/>
<rect x="161.135" y="92.8989" width="24.5393" height="24.5393" rx="3.50562" fill="#4DA1FF" fill-opacity="0.1"/>
<rect x="175.157" y="98.1573" width="4.38202" height="4.38202" rx="2.19101" fill="#4DA1FF"/>
<rect x="177.787" y="200.697" width="4.38202" height="4.38202" rx="2.19101" fill="#4DA1FF"/>
<rect x="52.4607" y="161.258" width="24.5393" height="24.5393" rx="3.50562" fill="#F5F5F5"/>
<rect x="69.1123" y="165.64" width="4.38202" height="4.38202" rx="2.19101" fill="#FF6D4A"/>
<path d="M148.54 138.934C148.54 139.267 148.457 139.562 148.29 139.819C148.124 140.077 147.895 140.282 147.603 140.436C147.936 140.596 148.199 140.817 148.394 141.1C148.589 141.379 148.686 141.708 148.686 142.088C148.686 142.697 148.479 143.179 148.064 143.533C147.65 143.885 147.087 144.06 146.375 144.06C145.662 144.06 145.097 143.883 144.68 143.529C144.263 143.174 144.054 142.694 144.054 142.088C144.054 141.708 144.151 141.377 144.346 141.095C144.54 140.812 144.802 140.593 145.132 140.436C144.84 140.282 144.611 140.077 144.445 139.819C144.281 139.562 144.2 139.267 144.2 138.934C144.2 138.351 144.394 137.886 144.784 137.541C145.173 137.193 145.701 137.018 146.37 137.018C147.035 137.018 147.562 137.191 147.951 137.536C148.344 137.878 148.54 138.344 148.54 138.934ZM147.321 141.989C147.321 141.691 147.234 141.453 147.062 141.274C146.889 141.095 146.657 141.005 146.365 141.005C146.076 141.005 145.846 141.095 145.673 141.274C145.501 141.449 145.414 141.688 145.414 141.989C145.414 142.281 145.499 142.516 145.668 142.695C145.838 142.874 146.073 142.964 146.375 142.964C146.67 142.964 146.9 142.877 147.067 142.705C147.236 142.532 147.321 142.294 147.321 141.989ZM147.179 139C147.179 138.733 147.109 138.52 146.968 138.36C146.826 138.197 146.627 138.115 146.37 138.115C146.116 138.115 145.918 138.194 145.777 138.351C145.636 138.507 145.565 138.724 145.565 139C145.565 139.273 145.636 139.493 145.777 139.659C145.918 139.825 146.117 139.909 146.375 139.909C146.632 139.909 146.83 139.825 146.968 139.659C147.109 139.493 147.179 139.273 147.179 139Z" fill="#999999"/>
<path d="M173.547 141.227C173.192 141.575 172.778 141.749 172.304 141.749C171.699 141.749 171.214 141.542 170.85 141.128C170.486 140.71 170.304 140.149 170.304 139.443C170.304 138.994 170.401 138.583 170.596 138.209C170.793 137.833 171.068 137.541 171.419 137.334C171.771 137.124 172.166 137.018 172.606 137.018C173.057 137.018 173.459 137.131 173.811 137.357C174.162 137.583 174.435 137.908 174.63 138.332C174.824 138.755 174.923 139.24 174.926 139.786V140.29C174.926 141.432 174.642 142.33 174.074 142.982C173.506 143.635 172.701 143.984 171.659 144.028L171.325 144.032V142.898L171.626 142.893C172.81 142.84 173.45 142.284 173.547 141.227ZM172.639 140.709C172.858 140.709 173.047 140.652 173.203 140.539C173.363 140.426 173.484 140.29 173.566 140.13V139.57C173.566 139.108 173.478 138.751 173.302 138.496C173.127 138.242 172.891 138.115 172.596 138.115C172.323 138.115 172.099 138.241 171.923 138.492C171.747 138.74 171.659 139.052 171.659 139.429C171.659 139.802 171.744 140.11 171.914 140.351C172.086 140.59 172.328 140.709 172.639 140.709Z" fill="#999999"/>
<path d="M194.703 143.966H193.343V138.722L191.719 139.226V138.12L194.557 137.103H194.703V143.966ZM202.464 141.133C202.464 142.08 202.268 142.805 201.876 143.307C201.483 143.809 200.909 144.06 200.153 144.06C199.406 144.06 198.835 143.814 198.439 143.321C198.044 142.829 197.842 142.123 197.832 141.203V139.942C197.832 138.984 198.03 138.258 198.425 137.762C198.824 137.266 199.397 137.018 200.143 137.018C200.89 137.018 201.461 137.265 201.857 137.757C202.252 138.247 202.455 138.952 202.464 139.871V141.133ZM201.104 139.749C201.104 139.181 201.025 138.768 200.868 138.511C200.715 138.25 200.473 138.12 200.143 138.12C199.823 138.12 199.586 138.244 199.433 138.492C199.282 138.737 199.202 139.121 199.193 139.645V141.311C199.193 141.87 199.268 142.286 199.419 142.559C199.572 142.829 199.817 142.964 200.153 142.964C200.486 142.964 200.726 142.833 200.873 142.573C201.021 142.312 201.097 141.914 201.104 141.377V139.749Z" fill="#999999"/>
<path d="M32.5682 178.146H31.2078V172.902L29.5838 173.406V172.3L32.4223 171.283H32.5682V178.146ZM39.0206 178.146H37.6602V172.902L36.0362 173.406V172.3L38.8747 171.283H39.0206V178.146Z" fill="#999999"/>
<path d="M61.4896 178.146H60.1292V172.902L58.5052 173.406V172.3L61.3437 171.283H61.4896V178.146ZM69.3354 178.146H64.6375V177.214L66.8546 174.851C67.159 174.518 67.3834 174.228 67.5278 173.98C67.6753 173.732 67.749 173.497 67.749 173.274C67.749 172.97 67.6721 172.731 67.5184 172.559C67.3646 172.383 67.1449 172.295 66.8593 172.295C66.5518 172.295 66.3086 172.402 66.1297 172.615C65.954 172.825 65.8661 173.103 65.8661 173.448H64.501C64.501 173.031 64.5999 172.65 64.7976 172.304C64.9984 171.959 65.2809 171.689 65.6449 171.495C66.0089 171.297 66.4216 171.198 66.8829 171.198C67.589 171.198 68.1366 171.368 68.5257 171.707C68.918 172.045 69.1141 172.524 69.1141 173.142C69.1141 173.481 69.0263 173.826 68.8505 174.178C68.6748 174.529 68.3735 174.939 67.9467 175.406L66.3886 177.049H69.3354V178.146Z" fill="#999999"/>
<path d="M88.6582 178.146H87.2978V172.902L85.6738 173.406V172.3L88.5123 171.283H88.6582V178.146ZM93.19 174.117H93.915C94.2602 174.117 94.5159 174.03 94.6822 173.858C94.8486 173.685 94.9317 173.456 94.9317 173.17C94.9317 172.894 94.8486 172.679 94.6822 172.526C94.5191 172.372 94.2931 172.295 94.0044 172.295C93.7439 172.295 93.5258 172.367 93.3501 172.511C93.1743 172.653 93.0865 172.838 93.0865 173.067H91.7261C91.7261 172.709 91.8218 172.389 92.0132 172.107C92.2078 171.821 92.4777 171.598 92.8229 171.438C93.1712 171.278 93.5541 171.198 93.9714 171.198C94.6964 171.198 95.2644 171.372 95.6755 171.721C96.0866 172.066 96.2921 172.543 96.2921 173.152C96.2921 173.465 96.1964 173.754 96.005 174.018C95.8135 174.281 95.5625 174.484 95.2518 174.625C95.6378 174.763 95.925 174.97 96.1132 175.246C96.3047 175.523 96.4004 175.849 96.4004 176.225C96.4004 176.834 96.1776 177.322 95.732 177.689C95.2895 178.057 94.7026 178.24 93.9714 178.24C93.2873 178.24 92.7272 178.06 92.291 177.699C91.8579 177.338 91.6414 176.861 91.6414 176.268H93.0017C93.0017 176.525 93.0975 176.735 93.2889 176.899C93.4835 177.062 93.722 177.143 94.0044 177.143C94.3276 177.143 94.5802 177.059 94.7623 176.889C94.9474 176.717 95.04 176.489 95.04 176.207C95.04 175.523 94.6634 175.18 93.9102 175.18H93.19V174.117Z" fill="#999999"/>
<path d="M113.198 178.146H111.837V172.902L110.213 173.406V172.3L113.052 171.283H113.198V178.146ZM120.37 175.566H121.147V176.663H120.37V178.146H119.01V176.663H116.199L116.138 175.807L118.996 171.292H120.37V175.566ZM117.494 175.566H119.01V173.147L118.92 173.302L117.494 175.566Z" fill="#999999"/>
<path d="M143.872 178.146H142.511V172.902L140.887 173.406V172.3L143.726 171.283H143.872V178.146ZM147.222 174.776L147.617 171.292H151.458V172.427H148.733L148.563 173.9C148.887 173.728 149.23 173.641 149.594 173.641C150.247 173.641 150.759 173.844 151.129 174.248C151.499 174.653 151.684 175.22 151.684 175.948C151.684 176.39 151.59 176.787 151.402 177.139C151.217 177.487 150.95 177.758 150.602 177.953C150.253 178.144 149.842 178.24 149.368 178.24C148.954 178.24 148.57 178.157 148.215 177.991C147.861 177.821 147.58 177.584 147.373 177.28C147.169 176.976 147.06 176.629 147.048 176.24H148.394C148.422 176.525 148.521 176.748 148.691 176.908C148.863 177.065 149.088 177.143 149.364 177.143C149.671 177.143 149.908 177.034 150.074 176.814C150.241 176.591 150.324 176.277 150.324 175.872C150.324 175.483 150.228 175.185 150.037 174.978C149.845 174.771 149.574 174.667 149.222 174.667C148.899 174.667 148.637 174.752 148.436 174.922L148.305 175.044L147.222 174.776Z" fill="#999999"/>
<path d="M170.164 178.146H168.803V172.902L167.179 173.406V172.3L170.018 171.283H170.164V178.146ZM177.002 171.222V172.342H176.87C176.255 172.351 175.759 172.511 175.383 172.822C175.009 173.133 174.785 173.564 174.71 174.117C175.074 173.746 175.534 173.561 176.089 173.561C176.685 173.561 177.159 173.775 177.511 174.201C177.862 174.628 178.038 175.19 178.038 175.887C178.038 176.332 177.941 176.735 177.746 177.096C177.555 177.457 177.282 177.738 176.927 177.939C176.575 178.14 176.177 178.24 175.731 178.24C175.009 178.24 174.426 177.989 173.98 177.487C173.538 176.985 173.316 176.315 173.316 175.477V174.987C173.316 174.244 173.456 173.588 173.735 173.02C174.018 172.449 174.421 172.008 174.945 171.697C175.472 171.383 176.083 171.225 176.776 171.222H177.002ZM175.675 174.653C175.455 174.653 175.256 174.711 175.077 174.827C174.898 174.94 174.766 175.091 174.682 175.279V175.694C174.682 176.149 174.771 176.505 174.95 176.762C175.129 177.016 175.38 177.143 175.703 177.143C175.995 177.143 176.23 177.029 176.409 176.8C176.591 176.568 176.682 176.268 176.682 175.901C176.682 175.527 176.591 175.226 176.409 174.997C176.227 174.768 175.982 174.653 175.675 174.653Z" fill="#999999"/>
<path d="M194.703 178.146H193.343V172.902L191.719 173.406V172.3L194.557 171.283H194.703V178.146ZM202.511 172.055L199.861 178.146H198.425L201.08 172.394H197.672V171.292H202.511V172.055Z" fill="#999999"/>
<path d="M32.5682 212.326H31.2078V207.082L29.5838 207.586V206.479L32.4223 205.463H32.5682V212.326ZM40.1833 207.294C40.1833 207.626 40.1002 207.921 39.9338 208.179C39.7675 208.436 39.5384 208.642 39.2466 208.795C39.5792 208.955 39.8428 209.177 40.0374 209.459C40.232 209.738 40.3292 210.068 40.3292 210.448C40.3292 211.056 40.1221 211.538 39.7079 211.893C39.2937 212.244 38.7304 212.42 38.018 212.42C37.3056 212.42 36.7408 212.243 36.3234 211.888C35.906 211.533 35.6973 211.053 35.6973 210.448C35.6973 210.068 35.7946 209.737 35.9892 209.454C36.1837 209.172 36.4458 208.952 36.7753 208.795C36.4834 208.642 36.2543 208.436 36.088 208.179C35.9248 207.921 35.8432 207.626 35.8432 207.294C35.8432 206.71 36.0378 206.246 36.4269 205.9C36.8161 205.552 37.3448 205.378 38.0133 205.378C38.6786 205.378 39.2058 205.551 39.5949 205.896C39.9872 206.238 40.1833 206.704 40.1833 207.294ZM38.9641 210.349C38.9641 210.051 38.8778 209.812 38.7052 209.633C38.5326 209.454 38.3004 209.365 38.0086 209.365C37.7199 209.365 37.4892 209.454 37.3166 209.633C37.144 209.809 37.0577 210.048 37.0577 210.349C37.0577 210.641 37.1424 210.876 37.3119 211.055C37.4814 211.234 37.7167 211.323 38.018 211.323C38.313 211.323 38.5436 211.237 38.71 211.064C38.8794 210.892 38.9641 210.653 38.9641 210.349ZM38.8229 207.36C38.8229 207.093 38.7523 206.88 38.6111 206.72C38.4699 206.556 38.2706 206.475 38.0133 206.475C37.7591 206.475 37.5614 206.553 37.4202 206.71C37.2789 206.867 37.2083 207.084 37.2083 207.36C37.2083 207.633 37.2789 207.852 37.4202 208.019C37.5614 208.185 37.7607 208.268 38.018 208.268C38.2753 208.268 38.473 208.185 38.6111 208.019C38.7523 207.852 38.8229 207.633 38.8229 207.36Z" fill="#999999"/>
<path d="M61.4896 212.326H60.1292V207.082L58.5052 207.586V206.479L61.3437 205.463H61.4896V212.326ZM67.8196 209.586C67.465 209.935 67.0508 210.109 66.5769 210.109C65.9712 210.109 65.4864 209.902 65.1224 209.487C64.7583 209.07 64.5763 208.508 64.5763 207.802C64.5763 207.353 64.6736 206.942 64.8682 206.569C65.0659 206.192 65.3405 205.9 65.692 205.693C66.0434 205.483 66.4388 205.378 66.8782 205.378C67.3301 205.378 67.7318 205.491 68.0832 205.717C68.4347 205.943 68.7077 206.268 68.9023 206.691C69.0969 207.115 69.1957 207.6 69.1989 208.146V208.649C69.1989 209.792 68.9148 210.689 68.3468 211.342C67.7788 211.995 66.9739 212.343 65.932 212.387L65.5978 212.392V211.257L65.8991 211.253C67.0822 211.199 67.7223 210.644 67.8196 209.586ZM66.9111 209.068C67.1308 209.068 67.3191 209.012 67.476 208.899C67.636 208.786 67.7569 208.649 67.8385 208.489V207.929C67.8385 207.468 67.7506 207.11 67.5749 206.856C67.3991 206.602 67.1638 206.475 66.8688 206.475C66.5957 206.475 66.3714 206.6 66.1956 206.851C66.0199 207.099 65.932 207.411 65.932 207.788C65.932 208.161 66.0168 208.469 66.1862 208.711C66.3588 208.949 66.6005 209.068 66.9111 209.068Z" fill="#999999"/>
<path d="M90.0515 212.326H85.3537V211.394L87.5708 209.031C87.8752 208.698 88.0996 208.408 88.244 208.16C88.3915 207.912 88.4652 207.677 88.4652 207.454C88.4652 207.149 88.3883 206.911 88.2346 206.738C88.0808 206.563 87.8611 206.475 87.5755 206.475C87.268 206.475 87.0248 206.581 86.8459 206.795C86.6702 207.005 86.5823 207.283 86.5823 207.628H85.2172C85.2172 207.211 85.3161 206.829 85.5138 206.484C85.7146 206.139 85.997 205.869 86.3611 205.674C86.7251 205.477 87.1378 205.378 87.5991 205.378C88.3052 205.378 88.8528 205.547 89.2419 205.886C89.6342 206.225 89.8303 206.704 89.8303 207.322C89.8303 207.661 89.7424 208.006 89.5667 208.358C89.391 208.709 89.0897 209.119 88.6629 209.586L87.1048 211.229H90.0515V212.326ZM96.4192 209.492C96.4192 210.44 96.2231 211.165 95.8308 211.667C95.4385 212.169 94.8643 212.42 94.108 212.42C93.3611 212.42 92.7899 212.174 92.3945 211.681C91.9991 211.188 91.7967 210.482 91.7873 209.563V208.301C91.7873 207.344 91.985 206.618 92.3804 206.122C92.7789 205.626 93.3517 205.378 94.0985 205.378C94.8454 205.378 95.4166 205.624 95.812 206.117C96.2074 206.607 96.4098 207.311 96.4192 208.231V209.492ZM95.0588 208.108C95.0588 207.54 94.9804 207.127 94.8235 206.87C94.6697 206.61 94.428 206.479 94.0985 206.479C93.7784 206.479 93.5415 206.603 93.3877 206.851C93.2371 207.096 93.1571 207.481 93.1477 208.005V209.671C93.1477 210.23 93.223 210.645 93.3736 210.918C93.5274 211.188 93.7722 211.323 94.108 211.323C94.4406 211.323 94.6807 211.193 94.8282 210.932C94.9757 210.672 95.0525 210.273 95.0588 209.737V208.108Z" fill="#999999"/>
<path d="M114.591 212.326H109.893V211.394L112.11 209.031C112.415 208.698 112.639 208.408 112.783 208.16C112.931 207.912 113.005 207.677 113.005 207.454C113.005 207.149 112.928 206.911 112.774 206.738C112.62 206.563 112.4 206.475 112.115 206.475C111.807 206.475 111.564 206.581 111.385 206.795C111.209 207.005 111.122 207.283 111.122 207.628H109.757C109.757 207.211 109.855 206.829 110.053 206.484C110.254 206.139 110.536 205.869 110.9 205.674C111.264 205.477 111.677 205.378 112.138 205.378C112.844 205.378 113.392 205.547 113.781 205.886C114.173 206.225 114.37 206.704 114.37 207.322C114.37 207.661 114.282 208.006 114.106 208.358C113.93 208.709 113.629 209.119 113.202 209.586L111.644 211.229H114.591V212.326ZM119.65 212.326H118.29V207.082L116.666 207.586V206.479L119.504 205.463H119.65V212.326Z" fill="#999999"/>
<path d="M145.265 212.326H140.567V211.394L142.784 209.031C143.089 208.698 143.313 208.408 143.457 208.16C143.605 207.912 143.679 207.677 143.679 207.454C143.679 207.149 143.602 206.911 143.448 206.738C143.294 206.563 143.074 206.475 142.789 206.475C142.481 206.475 142.238 206.581 142.059 206.795C141.884 207.005 141.796 207.283 141.796 207.628H140.431C140.431 207.211 140.529 206.829 140.727 206.484C140.928 206.139 141.21 205.869 141.574 205.674C141.938 205.477 142.351 205.378 142.812 205.378C143.519 205.378 144.066 205.547 144.455 205.886C144.848 206.225 145.044 206.704 145.044 207.322C145.044 207.661 144.956 208.006 144.78 208.358C144.604 208.709 144.303 209.119 143.876 209.586L142.318 211.229H145.265V212.326ZM151.717 212.326H147.019V211.394L149.237 209.031C149.541 208.698 149.765 208.408 149.91 208.16C150.057 207.912 150.131 207.677 150.131 207.454C150.131 207.149 150.054 206.911 149.9 206.738C149.747 206.563 149.527 206.475 149.241 206.475C148.934 206.475 148.691 206.581 148.512 206.795C148.336 207.005 148.248 207.283 148.248 207.628H146.883C146.883 207.211 146.982 206.829 147.18 206.484C147.38 206.139 147.663 205.869 148.027 205.674C148.391 205.477 148.804 205.378 149.265 205.378C149.971 205.378 150.519 205.547 150.908 205.886C151.3 206.225 151.496 206.704 151.496 207.322C151.496 207.661 151.408 208.006 151.232 208.358C151.057 208.709 150.755 209.119 150.329 209.586L148.771 211.229H151.717V212.326Z" fill="#999999"/>
<path d="M171.557 212.326H166.859V211.394L169.076 209.031C169.381 208.698 169.605 208.408 169.75 208.16C169.897 207.912 169.971 207.677 169.971 207.454C169.971 207.149 169.894 206.911 169.74 206.738C169.586 206.563 169.367 206.475 169.081 206.475C168.774 206.475 168.53 206.581 168.352 206.795C168.176 207.005 168.088 207.283 168.088 207.628H166.723C166.723 207.211 166.822 206.829 167.019 206.484C167.22 206.139 167.503 205.869 167.867 205.674C168.231 205.477 168.643 205.378 169.105 205.378C169.811 205.378 170.358 205.547 170.748 205.886C171.14 206.225 171.336 206.704 171.336 207.322C171.336 207.661 171.248 208.006 171.072 208.358C170.897 208.709 170.595 209.119 170.169 209.586L168.61 211.229H171.557V212.326ZM174.696 208.296H175.421C175.766 208.296 176.022 208.21 176.188 208.038C176.354 207.865 176.437 207.636 176.437 207.35C176.437 207.074 176.354 206.859 176.188 206.705C176.025 206.552 175.799 206.475 175.51 206.475C175.25 206.475 175.031 206.547 174.856 206.691C174.68 206.832 174.592 207.018 174.592 207.247H173.232C173.232 206.889 173.327 206.569 173.519 206.286C173.713 206.001 173.983 205.778 174.328 205.618C174.677 205.458 175.06 205.378 175.477 205.378C176.202 205.378 176.77 205.552 177.181 205.9C177.592 206.246 177.798 206.723 177.798 207.331C177.798 207.645 177.702 207.934 177.511 208.198C177.319 208.461 177.068 208.664 176.757 208.805C177.143 208.943 177.431 209.15 177.619 209.426C177.81 209.702 177.906 210.029 177.906 210.405C177.906 211.014 177.683 211.502 177.238 211.869C176.795 212.236 176.208 212.42 175.477 212.42C174.793 212.42 174.233 212.24 173.797 211.879C173.364 211.518 173.147 211.041 173.147 210.448H174.507C174.507 210.705 174.603 210.915 174.795 211.078C174.989 211.242 175.228 211.323 175.51 211.323C175.833 211.323 176.086 211.238 176.268 211.069C176.453 210.896 176.546 210.669 176.546 210.386C176.546 209.702 176.169 209.36 175.416 209.36H174.696V208.296Z" fill="#999999"/>
<path d="M196.096 212.326H191.399V211.394L193.616 209.031C193.92 208.698 194.145 208.408 194.289 208.16C194.436 207.912 194.51 207.677 194.51 207.454C194.51 207.149 194.433 206.911 194.279 206.738C194.126 206.563 193.906 206.475 193.62 206.475C193.313 206.475 193.07 206.581 192.891 206.795C192.715 207.005 192.627 207.283 192.627 207.628H191.262C191.262 207.211 191.361 206.829 191.559 206.484C191.76 206.139 192.042 205.869 192.406 205.674C192.77 205.477 193.183 205.378 193.644 205.378C194.35 205.378 194.898 205.547 195.287 205.886C195.679 206.225 195.875 206.704 195.875 207.322C195.875 207.661 195.787 208.006 195.612 208.358C195.436 208.709 195.135 209.119 194.708 209.586L193.15 211.229H196.096V212.326ZM201.876 209.746H202.652V210.843H201.876V212.326H200.515V210.843H197.705L197.644 209.986L200.501 205.472H201.876V209.746ZM199 209.746H200.515V207.327L200.426 207.482L199 209.746Z" fill="#999999"/>
<path d="M33.9616 246.506H29.2637V245.574L31.4809 243.211C31.7853 242.878 32.0096 242.588 32.154 242.34C32.3015 242.092 32.3752 241.856 32.3752 241.634C32.3752 241.329 32.2984 241.091 32.1446 240.918C31.9908 240.742 31.7711 240.655 31.4856 240.655C31.178 240.655 30.9348 240.761 30.7559 240.975C30.5802 241.185 30.4923 241.463 30.4923 241.808H29.1272C29.1272 241.39 29.2261 241.009 29.4238 240.664C29.6246 240.319 29.9071 240.049 30.2711 239.854C30.6351 239.657 31.0478 239.558 31.5091 239.558C32.2152 239.558 32.7628 239.727 33.1519 240.066C33.5442 240.405 33.7403 240.884 33.7403 241.502C33.7403 241.841 33.6525 242.186 33.4767 242.537C33.301 242.889 32.9997 243.298 32.5729 243.766L31.0148 245.409H33.9616V246.506ZM35.9186 243.135L36.314 239.652H40.1551V240.786H37.4296L37.2601 242.26C37.5834 242.087 37.927 242.001 38.291 242.001C38.9437 242.001 39.4553 242.203 39.8256 242.608C40.1959 243.013 40.381 243.579 40.381 244.307C40.381 244.75 40.2869 245.147 40.0986 245.498C39.9134 245.847 39.6467 246.118 39.2984 246.313C38.95 246.504 38.5389 246.6 38.0651 246.6C37.6508 246.6 37.2664 246.517 36.9118 246.35C36.5572 246.181 36.2763 245.944 36.0692 245.639C35.8652 245.335 35.7569 244.988 35.7444 244.599H37.0907C37.1189 244.885 37.2178 245.108 37.3872 245.268C37.5598 245.425 37.7842 245.503 38.0604 245.503C38.3679 245.503 38.6048 245.393 38.7711 245.173C38.9375 244.951 39.0206 244.637 39.0206 244.232C39.0206 243.843 38.9249 243.545 38.7335 243.338C38.5421 243.131 38.2706 243.027 37.9191 243.027C37.5959 243.027 37.3339 243.112 37.133 243.281L37.0012 243.404L35.9186 243.135Z" fill="#999999"/>
<path d="M62.883 246.506H58.1851V245.574L60.4022 243.211C60.7067 242.878 60.931 242.588 61.0754 242.34C61.2229 242.092 61.2966 241.856 61.2966 241.634C61.2966 241.329 61.2197 241.091 61.066 240.918C60.9122 240.742 60.6925 240.655 60.407 240.655C60.0994 240.655 59.8562 240.761 59.6773 240.975C59.5016 241.185 59.4137 241.463 59.4137 241.808H58.0486C58.0486 241.39 58.1475 241.009 58.3452 240.664C58.546 240.319 58.8285 240.049 59.1925 239.854C59.5565 239.657 59.9692 239.558 60.4305 239.558C61.1366 239.558 61.6842 239.727 62.0733 240.066C62.4656 240.405 62.6617 240.884 62.6617 241.502C62.6617 241.841 62.5739 242.186 62.3981 242.537C62.2224 242.889 61.9211 243.298 61.4943 243.766L59.9362 245.409H62.883V246.506ZM68.328 239.581V240.702H68.1962C67.5811 240.711 67.0853 240.871 66.7087 241.182C66.3353 241.492 66.1109 241.924 66.0356 242.476C66.3996 242.106 66.8593 241.921 67.4148 241.921C68.0111 241.921 68.4849 242.134 68.8364 242.561C69.1879 242.988 69.3636 243.549 69.3636 244.246C69.3636 244.692 69.2663 245.095 69.0718 245.456C68.8803 245.817 68.6073 246.098 68.2527 246.298C67.9012 246.499 67.5027 246.6 67.0571 246.6C66.3353 246.6 65.7516 246.349 65.306 245.847C64.8635 245.344 64.6422 244.674 64.6422 243.837V243.347C64.6422 242.603 64.7819 241.947 65.0612 241.379C65.3436 240.808 65.7469 240.367 66.2709 240.057C66.7982 239.743 67.4085 239.584 68.1021 239.581H68.328ZM67.0006 243.013C66.7809 243.013 66.5816 243.071 66.4027 243.187C66.2239 243.3 66.0921 243.451 66.0073 243.639V244.053C66.0073 244.508 66.0968 244.864 66.2757 245.122C66.4545 245.376 66.7056 245.503 67.0288 245.503C67.3207 245.503 67.556 245.388 67.7349 245.159C67.9169 244.927 68.0079 244.627 68.0079 244.26C68.0079 243.887 67.9169 243.586 67.7349 243.356C67.5529 243.127 67.3081 243.013 67.0006 243.013Z" fill="#999999"/>
<path d="M90.0515 246.506H85.3537V245.574L87.5708 243.211C87.8752 242.878 88.0996 242.588 88.244 242.34C88.3915 242.092 88.4652 241.856 88.4652 241.634C88.4652 241.329 88.3883 241.091 88.2346 240.918C88.0808 240.742 87.8611 240.655 87.5755 240.655C87.268 240.655 87.0248 240.761 86.8459 240.975C86.6702 241.185 86.5823 241.463 86.5823 241.808H85.2172C85.2172 241.39 85.3161 241.009 85.5138 240.664C85.7146 240.319 85.997 240.049 86.3611 239.854C86.7251 239.657 87.1378 239.558 87.5991 239.558C88.3052 239.558 88.8528 239.727 89.2419 240.066C89.6342 240.405 89.8303 240.884 89.8303 241.502C89.8303 241.841 89.7424 242.186 89.5667 242.537C89.391 242.889 89.0897 243.298 88.6629 243.766L87.1048 245.409H90.0515V246.506ZM96.4663 240.414L93.8161 246.506H92.3804L95.0353 240.753H91.6272V239.652H96.4663V240.414Z" fill="#999999"/>
<path d="M114.591 246.506H109.893V245.574L112.11 243.211C112.415 242.878 112.639 242.588 112.783 242.34C112.931 242.092 113.005 241.856 113.005 241.634C113.005 241.329 112.928 241.091 112.774 240.918C112.62 240.742 112.4 240.655 112.115 240.655C111.807 240.655 111.564 240.761 111.385 240.975C111.209 241.185 111.122 241.463 111.122 241.808H109.757C109.757 241.39 109.855 241.009 110.053 240.664C110.254 240.319 110.536 240.049 110.9 239.854C111.264 239.657 111.677 239.558 112.138 239.558C112.844 239.558 113.392 239.727 113.781 240.066C114.173 240.405 114.37 240.884 114.37 241.502C114.37 241.841 114.282 242.186 114.106 242.537C113.93 242.889 113.629 243.298 113.202 243.766L111.644 245.409H114.591V246.506ZM120.813 241.474C120.813 241.806 120.729 242.101 120.563 242.359C120.397 242.616 120.168 242.821 119.876 242.975C120.208 243.135 120.472 243.356 120.667 243.639C120.861 243.918 120.959 244.248 120.959 244.627C120.959 245.236 120.751 245.718 120.337 246.073C119.923 246.424 119.36 246.6 118.647 246.6C117.935 246.6 117.37 246.422 116.953 246.068C116.535 245.713 116.327 245.233 116.327 244.627C116.327 244.248 116.424 243.917 116.618 243.634C116.813 243.352 117.075 243.132 117.405 242.975C117.113 242.821 116.884 242.616 116.717 242.359C116.554 242.101 116.473 241.806 116.473 241.474C116.473 240.89 116.667 240.425 117.056 240.08C117.445 239.732 117.974 239.558 118.643 239.558C119.308 239.558 119.835 239.73 120.224 240.076C120.616 240.418 120.813 240.884 120.813 241.474ZM119.593 244.529C119.593 244.23 119.507 243.992 119.335 243.813C119.162 243.634 118.93 243.545 118.638 243.545C118.349 243.545 118.118 243.634 117.946 243.813C117.773 243.989 117.687 244.227 117.687 244.529C117.687 244.82 117.772 245.056 117.941 245.235C118.111 245.414 118.346 245.503 118.647 245.503C118.942 245.503 119.173 245.417 119.339 245.244C119.509 245.071 119.593 244.833 119.593 244.529ZM119.452 241.539C119.452 241.273 119.382 241.059 119.24 240.899C119.099 240.736 118.9 240.655 118.643 240.655C118.388 240.655 118.191 240.733 118.049 240.89C117.908 241.047 117.838 241.263 117.838 241.539C117.838 241.812 117.908 242.032 118.049 242.198C118.191 242.365 118.39 242.448 118.647 242.448C118.905 242.448 119.102 242.365 119.24 242.198C119.382 242.032 119.452 241.812 119.452 241.539Z" fill="#999999"/>
<path d="M145.265 246.506H140.567V245.574L142.784 243.211C143.089 242.878 143.313 242.588 143.457 242.34C143.605 242.092 143.679 241.856 143.679 241.634C143.679 241.329 143.602 241.091 143.448 240.918C143.294 240.742 143.074 240.655 142.789 240.655C142.481 240.655 142.238 240.761 142.059 240.975C141.884 241.185 141.796 241.463 141.796 241.808H140.431C140.431 241.39 140.529 241.009 140.727 240.664C140.928 240.319 141.21 240.049 141.574 239.854C141.938 239.657 142.351 239.558 142.812 239.558C143.519 239.558 144.066 239.727 144.455 240.066C144.848 240.405 145.044 240.884 145.044 241.502C145.044 241.841 144.956 242.186 144.78 242.537C144.604 242.889 144.303 243.298 143.876 243.766L142.318 245.409H145.265V246.506ZM150.202 243.766C149.847 244.114 149.433 244.289 148.959 244.289C148.353 244.289 147.868 244.081 147.504 243.667C147.14 243.25 146.958 242.688 146.958 241.982C146.958 241.533 147.056 241.122 147.25 240.749C147.448 240.372 147.722 240.08 148.074 239.873C148.425 239.663 148.821 239.558 149.26 239.558C149.712 239.558 150.114 239.671 150.465 239.897C150.817 240.123 151.09 240.447 151.284 240.871C151.479 241.295 151.578 241.78 151.581 242.326V242.829C151.581 243.972 151.297 244.869 150.729 245.522C150.161 246.175 149.356 246.523 148.314 246.567L147.98 246.572V245.437L148.281 245.432C149.464 245.379 150.104 244.824 150.202 243.766ZM149.293 243.248C149.513 243.248 149.701 243.192 149.858 243.079C150.018 242.966 150.139 242.829 150.22 242.669V242.109C150.22 241.648 150.133 241.29 149.957 241.036C149.781 240.782 149.546 240.655 149.251 240.655C148.978 240.655 148.753 240.78 148.578 241.031C148.402 241.279 148.314 241.591 148.314 241.968C148.314 242.341 148.399 242.649 148.568 242.89C148.741 243.129 148.982 243.248 149.293 243.248Z" fill="#999999"/>
<path d="M168.243 242.476H168.968C169.313 242.476 169.569 242.39 169.735 242.217C169.902 242.045 169.985 241.816 169.985 241.53C169.985 241.254 169.902 241.039 169.735 240.885C169.572 240.731 169.346 240.655 169.058 240.655C168.797 240.655 168.579 240.727 168.403 240.871C168.228 241.012 168.14 241.197 168.14 241.426H166.779C166.779 241.069 166.875 240.749 167.066 240.466C167.261 240.181 167.531 239.958 167.876 239.798C168.224 239.638 168.607 239.558 169.025 239.558C169.75 239.558 170.318 239.732 170.729 240.08C171.14 240.425 171.345 240.902 171.345 241.511C171.345 241.825 171.25 242.114 171.058 242.377C170.867 242.641 170.616 242.843 170.305 242.985C170.691 243.123 170.978 243.33 171.166 243.606C171.358 243.882 171.454 244.208 171.454 244.585C171.454 245.194 171.231 245.682 170.785 246.049C170.343 246.416 169.756 246.6 169.025 246.6C168.341 246.6 167.78 246.419 167.344 246.058C166.911 245.698 166.695 245.221 166.695 244.627H168.055C168.055 244.885 168.151 245.095 168.342 245.258C168.537 245.421 168.775 245.503 169.058 245.503C169.381 245.503 169.633 245.418 169.815 245.249C170.001 245.076 170.093 244.849 170.093 244.566C170.093 243.882 169.717 243.54 168.963 243.54H168.243V242.476ZM177.925 243.672C177.925 244.62 177.729 245.344 177.336 245.847C176.944 246.349 176.37 246.6 175.614 246.6C174.867 246.6 174.296 246.353 173.9 245.861C173.505 245.368 173.302 244.662 173.293 243.742V242.481C173.293 241.524 173.491 240.797 173.886 240.301C174.285 239.806 174.857 239.558 175.604 239.558C176.351 239.558 176.922 239.804 177.318 240.297C177.713 240.786 177.915 241.491 177.925 242.41V243.672ZM176.564 242.288C176.564 241.72 176.486 241.307 176.329 241.05C176.175 240.789 175.934 240.659 175.604 240.659C175.284 240.659 175.047 240.783 174.893 241.031C174.743 241.276 174.663 241.66 174.653 242.184V243.851C174.653 244.409 174.729 244.825 174.879 245.098C175.033 245.368 175.278 245.503 175.614 245.503C175.946 245.503 176.186 245.373 176.334 245.112C176.481 244.852 176.558 244.453 176.564 243.917V242.288Z" fill="#999999"/>
<path d="M192.783 242.476H193.507C193.853 242.476 194.108 242.39 194.275 242.217C194.441 242.045 194.524 241.816 194.524 241.53C194.524 241.254 194.441 241.039 194.275 240.885C194.112 240.731 193.886 240.655 193.597 240.655C193.336 240.655 193.118 240.727 192.943 240.871C192.767 241.012 192.679 241.197 192.679 241.426H191.319C191.319 241.069 191.414 240.749 191.606 240.466C191.8 240.181 192.07 239.958 192.415 239.798C192.764 239.638 193.147 239.558 193.564 239.558C194.289 239.558 194.857 239.732 195.268 240.08C195.679 240.425 195.885 240.902 195.885 241.511C195.885 241.825 195.789 242.114 195.598 242.377C195.406 242.641 195.155 242.843 194.844 242.985C195.23 243.123 195.517 243.33 195.706 243.606C195.897 243.882 195.993 244.208 195.993 244.585C195.993 245.194 195.77 245.682 195.324 246.049C194.882 246.416 194.295 246.6 193.564 246.6C192.88 246.6 192.32 246.419 191.883 246.058C191.45 245.698 191.234 245.221 191.234 244.627H192.594C192.594 244.885 192.69 245.095 192.881 245.258C193.076 245.421 193.314 245.503 193.597 245.503C193.92 245.503 194.173 245.418 194.355 245.249C194.54 245.076 194.633 244.849 194.633 244.566C194.633 243.882 194.256 243.54 193.503 243.54H192.783V242.476ZM201.156 246.506H199.795V241.262L198.171 241.765V240.659L201.01 239.642H201.156V246.506Z" fill="#999999"/>
<path d="M28.6258 73.135L30.3863 78.1059L32.1374 73.135H33.992V79.9888H32.5751V78.1153L32.7164 74.8814L30.8664 79.9888H29.8967L28.0515 74.8861L28.1927 78.1153V79.9888H26.7805V73.135H28.6258ZM41.7719 76.7172C41.7719 77.3919 41.6526 77.9835 41.4141 78.4919C41.1756 79.0002 40.8336 79.3925 40.3879 79.6687C39.9455 79.9448 39.4371 80.0829 38.8628 80.0829C38.2948 80.0829 37.788 79.9464 37.3423 79.6734C36.8967 79.4004 36.5515 79.0112 36.3068 78.506C36.062 77.9976 35.938 77.4139 35.9349 76.7549V76.416C35.9349 75.7413 36.0557 75.1481 36.2973 74.6366C36.5421 74.122 36.8857 73.7281 37.3282 73.4551C37.7738 73.1789 38.2822 73.0409 38.8534 73.0409C39.4245 73.0409 39.9313 73.1789 40.3738 73.4551C40.8194 73.7281 41.1631 74.122 41.4047 74.6366C41.6495 75.1481 41.7719 75.7397 41.7719 76.4113V76.7172ZM40.3409 76.4066C40.3409 75.6879 40.2122 75.1419 39.9549 74.7684C39.6975 74.395 39.3304 74.2083 38.8534 74.2083C38.3795 74.2083 38.0139 74.3934 37.7566 74.7637C37.4993 75.1309 37.369 75.6707 37.3659 76.383V76.7172C37.3659 77.417 37.4945 77.9599 37.7519 78.3459C38.0092 78.7319 38.3795 78.9249 38.8628 78.9249C39.3367 78.9249 39.7007 78.7398 39.9549 78.3695C40.2091 77.996 40.3377 77.4531 40.3409 76.7408V76.4066Z" fill="#808080"/>
<path d="M62.6137 73.2789H60.5143V78.9888H59.1021V73.2789H57.0309V72.135H62.6137V73.2789ZM69.5274 72.135V76.6493C69.5274 77.3993 69.2921 77.9924 68.8214 78.4286C68.3538 78.8648 67.7136 79.0829 66.9008 79.0829C66.1006 79.0829 65.4651 78.8711 64.9944 78.4474C64.5236 78.0238 64.2836 77.4417 64.2742 76.701V72.135H65.6863V76.6587C65.6863 77.1074 65.793 77.4354 66.0064 77.6425C66.223 77.8465 66.5211 77.9485 66.9008 77.9485C67.6948 77.9485 68.098 77.5311 68.1106 76.6963V72.135H69.5274Z" fill="#808080"/>
<path d="M89.0849 78.0117L90.0075 73.135H91.4149L89.8945 79.9888H88.4729L87.3573 75.4039L86.2417 79.9888H84.8201L83.2996 73.135H84.7071L85.6344 78.0023L86.7642 73.135H87.9598L89.0849 78.0117ZM97.2224 77.0185H94.5111V78.8543H97.6932V79.9888H93.0989V73.135H97.6838V74.2789H94.5111V75.9123H97.2224V77.0185Z" fill="#808080"/>
<path d="M114.322 74.2789H112.222V79.9888H110.81V74.2789H108.739V73.135H114.322V74.2789ZM121.626 79.9888H120.214V77.0514H117.46V79.9888H116.048V73.135H117.46V75.9123H120.214V73.135H121.626V79.9888Z" fill="#808080"/>
<path d="M143.96 76.188H141.249V78.9888H139.837V72.135H144.299V73.2789H141.249V75.0488H143.96V76.188ZM148.572 76.4798H147.447V78.9888H146.035V72.135H148.581C149.391 72.135 150.016 72.3155 150.455 72.6763C150.894 73.0372 151.114 73.5472 151.114 74.2062C151.114 74.6738 151.012 75.0645 150.808 75.3783C150.607 75.689 150.301 75.9369 149.89 76.1221L151.373 78.9229V78.9888H149.857L148.572 76.4798ZM147.447 75.3359H148.586C148.941 75.3359 149.215 75.2465 149.41 75.0676C149.605 74.8856 149.702 74.6361 149.702 74.3192C149.702 73.9959 149.609 73.7418 149.424 73.5566C149.242 73.3715 148.961 73.2789 148.581 73.2789H147.447V75.3359Z" fill="#808080"/>
<path d="M169.683 78.1906C169.683 77.9239 169.589 77.7199 169.4 77.5787C169.212 77.4343 168.873 77.2837 168.384 77.1268C167.894 76.9667 167.506 76.8098 167.221 76.656C166.443 76.2355 166.053 75.6691 166.053 74.9567C166.053 74.5864 166.157 74.2569 166.364 73.9682C166.574 73.6763 166.874 73.4488 167.263 73.2856C167.656 73.1225 168.095 73.0409 168.581 73.0409C169.071 73.0409 169.507 73.1303 169.89 73.3092C170.273 73.4849 170.569 73.7344 170.78 74.0576C170.993 74.3809 171.1 74.748 171.1 75.1591H169.687C169.687 74.8453 169.589 74.6021 169.391 74.4295C169.193 74.2538 168.915 74.1659 168.558 74.1659C168.213 74.1659 167.944 74.2396 167.753 74.3871C167.561 74.5315 167.466 74.7229 167.466 74.9614C167.466 75.1842 167.577 75.371 167.8 75.5216C168.026 75.6722 168.357 75.8134 168.793 75.9452C169.596 76.1869 170.182 76.4866 170.549 76.8443C170.916 77.2021 171.1 77.6477 171.1 78.1812C171.1 78.7743 170.875 79.2403 170.427 79.5792C169.978 79.915 169.374 80.0829 168.614 80.0829C168.087 80.0829 167.607 79.9872 167.174 79.7958C166.741 79.6012 166.41 79.336 166.181 79.0002C165.955 78.6645 165.842 78.2753 165.842 77.8328H167.259C167.259 78.5891 167.71 78.9673 168.614 78.9673C168.95 78.9673 169.212 78.8998 169.4 78.7649C169.589 78.6268 169.683 78.4354 169.683 78.1906ZM176.846 78.5766H174.37L173.899 79.9888H172.398L174.949 73.135H176.258L178.823 79.9888H177.321L176.846 78.5766ZM174.751 77.4327H176.465L175.603 74.8673L174.751 77.4327Z" fill="#808080"/>
<path d="M194.222 77.1906C194.222 76.9239 194.128 76.7199 193.94 76.5787C193.751 76.4343 193.412 76.2837 192.923 76.1268C192.433 75.9667 192.046 75.8098 191.76 75.656C190.982 75.2355 190.593 74.6691 190.593 73.9567C190.593 73.5864 190.696 73.2569 190.903 72.9682C191.114 72.6763 191.413 72.4488 191.803 72.2856C192.195 72.1225 192.634 72.0409 193.121 72.0409C193.61 72.0409 194.046 72.1303 194.429 72.3092C194.812 72.4849 195.109 72.7344 195.319 73.0576C195.532 73.3809 195.639 73.748 195.639 74.1591H194.227C194.227 73.8453 194.128 73.6021 193.93 73.4295C193.733 73.2538 193.455 73.1659 193.097 73.1659C192.752 73.1659 192.484 73.2396 192.292 73.3871C192.101 73.5315 192.005 73.7229 192.005 73.9614C192.005 74.1842 192.116 74.371 192.339 74.5216C192.565 74.6722 192.896 74.8134 193.332 74.9452C194.136 75.1869 194.721 75.4866 195.088 75.8443C195.455 76.2021 195.639 76.6477 195.639 77.1812C195.639 77.7743 195.415 78.2403 194.966 78.5792C194.517 78.915 193.913 79.0829 193.154 79.0829C192.626 79.0829 192.146 78.9872 191.713 78.7958C191.28 78.6012 190.949 78.336 190.72 78.0002C190.494 77.6645 190.381 77.2753 190.381 76.8328H191.798C191.798 77.5891 192.25 77.9673 193.154 77.9673C193.489 77.9673 193.751 77.8998 193.94 77.7649C194.128 77.6268 194.222 77.4354 194.222 77.1906ZM202.703 72.135V76.6493C202.703 77.3993 202.468 77.9924 201.997 78.4286C201.53 78.8648 200.889 79.0829 200.077 79.0829C199.276 79.0829 198.641 78.8711 198.17 78.4474C197.699 78.0238 197.459 77.4417 197.45 76.701V72.135H198.862V76.6587C198.862 77.1074 198.969 77.4354 199.182 77.6425C199.399 77.8465 199.697 77.9485 200.077 77.9485C200.871 77.9485 201.274 77.5311 201.286 76.6963V72.135H202.703Z" fill="#808080"/>
<path d="M84.7567 26.5579L87.6084 33.6753L90.4602 26.5579H91.9519V35.2809H90.8017V31.884L90.9095 28.2174L88.0458 35.2809H87.1651L84.3074 28.2354L84.4212 31.884V35.2809H83.2709V26.5579H84.7567ZM97.8112 35.2809C97.7473 35.1531 97.6954 34.9254 97.6554 34.5979C97.1402 35.1331 96.5251 35.4007 95.8102 35.4007C95.1711 35.4007 94.6459 35.221 94.2345 34.8615C93.8271 34.4981 93.6234 34.0387 93.6234 33.4836C93.6234 32.8086 93.8791 32.2854 94.3903 31.9139C94.9055 31.5385 95.6284 31.3508 96.559 31.3508H97.6374V30.8415C97.6374 30.4541 97.5216 30.1466 97.29 29.9189C97.0583 29.6872 96.7168 29.5714 96.2655 29.5714C95.8701 29.5714 95.5386 29.6713 95.271 29.871C95.0034 30.0707 94.8696 30.3123 94.8696 30.5959H93.7552C93.7552 30.2724 93.8691 29.9608 94.0967 29.6613C94.3284 29.3577 94.6399 29.1181 95.0313 28.9424C95.4267 28.7666 95.8601 28.6788 96.3314 28.6788C97.0783 28.6788 97.6634 28.8665 98.0868 29.2419C98.5101 29.6134 98.7298 30.1266 98.7458 30.7816V33.7651C98.7458 34.3603 98.8217 34.8336 98.9734 35.185V35.2809H97.8112ZM95.9719 34.4361C96.3194 34.4361 96.6489 34.3463 96.9605 34.1665C97.272 33.9868 97.4976 33.7532 97.6374 33.4656V32.1356H96.7687C95.4108 32.1356 94.7318 32.533 94.7318 33.3278C94.7318 33.6753 94.8476 33.9469 95.0793 34.1426C95.3109 34.3383 95.6085 34.4361 95.9719 34.4361ZM103.617 29.7931C103.449 29.7651 103.267 29.7511 103.071 29.7511C102.344 29.7511 101.851 30.0607 101.592 30.6798V35.2809H100.483V28.7986H101.562L101.58 29.5475C101.943 28.9683 102.458 28.6788 103.125 28.6788C103.341 28.6788 103.505 28.7067 103.617 28.7626V29.7931ZM107.121 34.4961C107.517 34.4961 107.862 34.3762 108.158 34.1366C108.453 33.897 108.617 33.5974 108.649 33.2379H109.697C109.677 33.6094 109.55 33.9629 109.314 34.2984C109.078 34.6339 108.763 34.9015 108.367 35.1012C107.976 35.3009 107.561 35.4007 107.121 35.4007C106.239 35.4007 105.536 35.1071 105.012 34.52C104.493 33.9289 104.234 33.1221 104.234 32.0996V31.9139C104.234 31.2829 104.349 30.7217 104.581 30.2304C104.813 29.7392 105.144 29.3577 105.576 29.0861C106.011 28.8145 106.524 28.6788 107.115 28.6788C107.842 28.6788 108.445 28.8964 108.925 29.3318C109.408 29.7671 109.665 30.3323 109.697 31.0272H108.649C108.617 30.6079 108.457 30.2644 108.17 29.9968C107.886 29.7252 107.535 29.5894 107.115 29.5894C106.552 29.5894 106.115 29.7931 105.803 30.2005C105.496 30.6039 105.342 31.189 105.342 31.9559V32.1655C105.342 32.9124 105.496 33.4876 105.803 33.891C106.111 34.2944 106.55 34.4961 107.121 34.4961ZM112.052 29.5834C112.543 28.9803 113.182 28.6788 113.969 28.6788C115.339 28.6788 116.03 29.4516 116.042 30.9973V35.2809H114.934V30.9913C114.93 30.524 114.822 30.1785 114.61 29.9548C114.402 29.7312 114.077 29.6193 113.634 29.6193C113.274 29.6193 112.959 29.7152 112.687 29.9069C112.415 30.0986 112.204 30.3503 112.052 30.6618V35.2809H110.944V26.0786H112.052V29.5834ZM126.347 35.2809H120.631V34.4841L123.651 31.1291C124.098 30.6218 124.405 30.2105 124.573 29.8949C124.745 29.5754 124.831 29.2459 124.831 28.9064C124.831 28.4511 124.693 28.0776 124.417 27.7861C124.142 27.4945 123.774 27.3487 123.315 27.3487C122.764 27.3487 122.335 27.5065 122.027 27.822C121.723 28.1336 121.572 28.5689 121.572 29.1281H120.463C120.463 28.3253 120.721 27.6762 121.236 27.181C121.755 26.6857 122.448 26.4381 123.315 26.4381C124.126 26.4381 124.767 26.6518 125.238 27.0791C125.709 27.5025 125.945 28.0677 125.945 28.7746C125.945 29.6333 125.398 30.6558 124.304 31.842L121.967 34.3762H126.347V35.2809ZM132.991 31.5604C132.991 32.8585 132.769 33.8231 132.326 34.4541C131.882 35.0852 131.189 35.4007 130.247 35.4007C129.316 35.4007 128.627 35.0932 128.18 34.4781C127.732 33.859 127.501 32.9364 127.485 31.7102V30.2304C127.485 28.9483 127.706 27.9958 128.15 27.3727C128.593 26.7496 129.288 26.4381 130.235 26.4381C131.173 26.4381 131.864 26.7396 132.308 27.3427C132.751 27.9419 132.979 28.8685 132.991 30.1226V31.5604ZM131.882 30.0447C131.882 29.1061 131.75 28.4231 131.487 27.9958C131.223 27.5644 130.806 27.3487 130.235 27.3487C129.668 27.3487 129.254 27.5624 128.995 27.9898C128.735 28.4171 128.601 29.0742 128.593 29.9608V31.7342C128.593 32.6768 128.729 33.3737 129.001 33.8251C129.276 34.2724 129.692 34.4961 130.247 34.4961C130.794 34.4961 131.199 34.2844 131.463 33.861C131.73 33.4376 131.87 32.7706 131.882 31.86V30.0447ZM138.053 35.2809H136.939V27.8939L134.704 28.7147V27.7082L137.879 26.516H138.053V35.2809ZM146.932 27.181L143.319 35.2809H142.157L145.758 27.4686H141.037V26.5579H146.932V27.181Z" fill="#989898"/>
<path fill-rule="evenodd" clip-rule="evenodd" d="M34.199 32.1288C34.0998 31.8329 34.1614 31.4971 34.4025 31.2627L37.7084 28.044C38.0502 27.7105 38.6053 27.7105 38.9478 28.044C39.2896 28.3775 39.2896 28.9176 38.9478 29.2511L35.8943 32.2242L39.047 35.2942C39.4038 35.6405 39.4038 36.2024 39.047 36.5487C38.6917 36.8957 38.1148 36.8957 37.7587 36.5487L34.3221 33.203C34.0209 32.9093 33.9901 32.4699 34.199 32.1288Z" fill="#4DA1FF"/>
<path fill-rule="evenodd" clip-rule="evenodd" d="M195.172 32.1288C195.271 31.8329 195.209 31.4971 194.968 31.2627L191.662 28.044C191.321 27.7105 190.765 27.7105 190.423 28.044C190.081 28.3775 190.081 28.9176 190.423 29.2511L193.476 32.2242L190.324 35.2942C189.967 35.6405 189.967 36.2024 190.324 36.5487C190.679 36.8957 191.256 36.8957 191.612 36.5487L195.049 33.203C195.35 32.9093 195.381 32.4699 195.172 32.1288Z" fill="#4DA1FF"/>
</svg>
