<svg width="5" height="9" viewBox="0 0 5 9" fill="none" xmlns="http://www.w3.org/2000/svg">
<path fill-rule="evenodd" clip-rule="evenodd" d="M4.45166 6.24766C4.44322 7.35539 3.54494 8.25115 2.43733 8.25115C1.32959 8.25115 0.431439 7.35539 0.422875 6.24766H0.422119V2.71449V2.20918V1.70449C0.422119 0.867929 1.09873 0.190063 1.93353 0.190063C2.7682 0.190063 3.44493 0.867929 3.44493 1.70449V2.20918V2.71449V4.48485V5.1209V6.24766H3.4433C3.43473 6.79793 2.98836 7.24141 2.43733 7.24141C1.88617 7.24141 1.43993 6.79793 1.43136 6.24766H1.42972V5.74297V5.1209V4.48485V3.72373V3.13088V2.55831V2.20918H1.93353V2.69849V3.2188V4.27867V4.82404V5.3626V5.74297V6.24766C1.93353 6.52638 2.1591 6.75234 2.43733 6.75234C2.71555 6.75234 2.94113 6.52638 2.94113 6.24766V5.3626V4.82404V4.27867V3.72373V2.83125V2.71449V2.20918V1.70449H2.94C2.94012 1.69933 2.94113 1.69417 2.94113 1.68888C2.94113 1.13104 2.48998 0.67913 1.93353 0.67913C1.37695 0.67913 0.925921 1.13104 0.925921 1.68888C0.925921 1.69417 0.926929 1.69933 0.927055 1.70449H0.925921V2.20918V2.71449V2.83125V3.72373V4.89923V6.24766C0.925921 7.08422 1.60253 7.76209 2.43733 7.76209C3.272 7.76209 3.94874 7.08422 3.94874 6.24766V4.89923V1.70449V1.19981H4.45254V1.70449V6.24766H4.45166Z" fill="#4DA1FF"/>
</svg>
