<svg width="21" height="21" viewBox="0 0 21 21" fill="none" xmlns="http://www.w3.org/2000/svg">
<g opacity="0.74">
<rect x="1.09131" y="0.947632" width="19.346" height="19.346" rx="1.61217" fill="white" stroke="#4DA1FF" stroke-opacity="0.7" stroke-width="0.806084"/>
<path fill-rule="evenodd" clip-rule="evenodd" d="M7.29383 10.2929L13.2443 12.8459L13.9189 7.15075L7.29383 10.2929ZM13.3848 13.2422C13.3614 13.2422 13.3381 13.2374 13.3164 13.2282L6.83282 10.4465C6.77377 10.4212 6.73513 10.3652 6.73379 10.3031C6.73262 10.241 6.76892 10.1838 6.82696 10.1562L14.0457 6.73283C14.1004 6.70684 14.1658 6.71149 14.216 6.74534C14.2661 6.77903 14.2929 6.83629 14.286 6.89468L13.5509 13.0999C13.5449 13.1506 13.5139 13.1958 13.4676 13.221C13.442 13.2351 13.4134 13.2422 13.3848 13.2422Z" fill="#4DA1FF"/>
<path d="M7.29383 10.2929L7.24201 10.1837L7.00003 10.2984L7.24616 10.404L7.29383 10.2929ZM13.2443 12.8459L13.1966 12.957L13.3453 13.0208L13.3644 12.8601L13.2443 12.8459ZM13.9189 7.15075L14.039 7.16498L14.0647 6.94778L13.8671 7.04151L13.9189 7.15075ZM13.3164 13.2282L13.2687 13.3394L13.2695 13.3397L13.3164 13.2282ZM6.83282 10.4465L6.78512 10.5576L6.78514 10.5576L6.83282 10.4465ZM6.73379 10.3031L6.6129 10.3054L6.61291 10.3057L6.73379 10.3031ZM6.82696 10.1562L6.77515 10.0469L6.77505 10.047L6.82696 10.1562ZM14.0457 6.73283L14.0975 6.84208L14.0976 6.84204L14.0457 6.73283ZM14.216 6.74534L14.1483 6.84558L14.1486 6.84573L14.216 6.74534ZM14.286 6.89468L14.4061 6.90891L14.4061 6.90879L14.286 6.89468ZM13.5509 13.0999L13.671 13.1142L13.671 13.1141L13.5509 13.0999ZM13.4676 13.221L13.4098 13.1148L13.4092 13.1151L13.4676 13.221ZM7.24616 10.404L13.1966 12.957L13.292 12.7347L7.3415 10.1818L7.24616 10.404ZM13.3644 12.8601L14.039 7.16498L13.7988 7.13653L13.1242 12.8316L13.3644 12.8601ZM13.8671 7.04151L7.24201 10.1837L7.34564 10.4022L13.9707 7.26L13.8671 7.04151ZM13.3848 13.1213C13.378 13.1213 13.3706 13.1199 13.3632 13.1168L13.2695 13.3397C13.3056 13.3549 13.3448 13.3631 13.3848 13.3631V13.1213ZM13.3641 13.1171L6.88049 10.3354L6.78514 10.5576L13.2687 13.3394L13.3641 13.1171ZM6.88051 10.3354C6.8631 10.3279 6.85495 10.3132 6.85468 10.3005L6.61291 10.3057C6.61531 10.4172 6.68444 10.5144 6.78512 10.5576L6.88051 10.3354ZM6.85468 10.3008C6.85445 10.2883 6.86181 10.2735 6.87887 10.2654L6.77505 10.047C6.67603 10.0941 6.6108 10.1938 6.6129 10.3054L6.85468 10.3008ZM6.87877 10.2654L14.0975 6.84208L13.9939 6.62358L6.77515 10.0469L6.87877 10.2654ZM14.0976 6.84204C14.114 6.83422 14.134 6.83588 14.1483 6.84558L14.2836 6.6451C14.1976 6.58711 14.0867 6.57946 13.9938 6.62362L14.0976 6.84204ZM14.1486 6.84573C14.1622 6.85489 14.1674 6.86852 14.166 6.88058L14.4061 6.90879C14.4184 6.80407 14.3701 6.70316 14.2834 6.64495L14.1486 6.84573ZM14.166 6.88046L13.4308 13.0857L13.671 13.1141L14.4061 6.90891L14.166 6.88046ZM13.4308 13.0856C13.4296 13.0963 13.4227 13.1078 13.4099 13.1148L13.5253 13.3272C13.6051 13.2839 13.6602 13.2049 13.671 13.1142L13.4308 13.0856ZM13.4092 13.1151C13.402 13.1191 13.3936 13.1213 13.3848 13.1213V13.3631C13.4332 13.3631 13.482 13.3512 13.526 13.3269L13.4092 13.1151Z" fill="#4DA1FF"/>
<path fill-rule="evenodd" clip-rule="evenodd" d="M9.87882 14.2441C9.8636 14.2441 9.84821 14.242 9.83299 14.238C9.76056 14.2181 9.71105 14.1544 9.71155 14.0824L9.73246 11.5158C9.73279 11.4775 9.74751 11.4406 9.77378 11.4117L13.9913 6.77163C14.0522 6.7049 14.1579 6.698 14.2275 6.75607C14.2971 6.81446 14.3043 6.91568 14.2436 6.98241L10.0667 11.5777L10.0508 13.5054L10.9724 12.0567C11.0208 11.981 11.1236 11.9571 11.2024 12.0033C11.2812 12.0494 11.3061 12.1483 11.258 12.2237L10.0217 14.1673C9.99073 14.2159 9.93603 14.2441 9.87882 14.2441Z" fill="#4DA1FF"/>
<path d="M9.87882 14.2441C9.8636 14.2441 9.84821 14.242 9.83299 14.238C9.76056 14.2181 9.71105 14.1544 9.71155 14.0824L9.73246 11.5158C9.73279 11.4775 9.74751 11.4406 9.77378 11.4117L13.9913 6.77163C14.0522 6.7049 14.1579 6.698 14.2275 6.75607C14.2971 6.81446 14.3043 6.91568 14.2436 6.98241L10.0667 11.5777L10.0508 13.5054L10.9724 12.0567C11.0208 11.981 11.1236 11.9571 11.2024 12.0033C11.2812 12.0494 11.3061 12.1483 11.258 12.2237L10.0217 14.1673C9.99073 14.2159 9.93603 14.2441 9.87882 14.2441" stroke="#4DA1FF" stroke-width="0.241825"/>
</g>
</svg>
