<svg width="21" height="22" viewBox="0 0 21 22" fill="none" xmlns="http://www.w3.org/2000/svg">
<rect x="0.444824" y="0.869751" width="20.1521" height="20.3071" rx="1.61217" fill="#7C4DC4" fill-opacity="0.1"/>
<path d="M9.58371 11.3267H7.50789V13.5123H6.61167V8.35465H9.88835V9.07729H7.50789V10.6111H9.58371V11.3267ZM13.0614 12.1839C13.0614 11.9572 12.9811 11.7825 12.8205 11.6597C12.6623 11.5369 12.3754 11.4129 11.9597 11.2877C11.5441 11.1626 11.2135 11.0232 10.9679 10.8697C10.4979 10.5745 10.263 10.1896 10.263 9.71492C10.263 9.29928 10.4318 8.95685 10.7695 8.68763C11.1096 8.41842 11.55 8.28381 12.0908 8.28381C12.4498 8.28381 12.7698 8.34993 13.0508 8.48218C13.3318 8.61443 13.5526 8.80335 13.7132 9.04896C13.8738 9.2922 13.9541 9.5626 13.9541 9.86016H13.0614C13.0614 9.59094 12.9764 9.38076 12.8064 9.22962C12.6387 9.07611 12.3978 8.99936 12.0837 8.99936C11.7909 8.99936 11.563 9.06194 11.4 9.18711C11.2395 9.31227 11.1592 9.48703 11.1592 9.71138C11.1592 9.9003 11.2465 10.0585 11.4213 10.1861C11.5961 10.3112 11.8842 10.434 12.2856 10.5545C12.6871 10.6725 13.0095 10.8083 13.2527 10.9618C13.4959 11.113 13.6742 11.2877 13.7876 11.4861C13.901 11.6821 13.9576 11.9124 13.9576 12.1769C13.9576 12.6067 13.7923 12.9491 13.4617 13.2041C13.1334 13.4568 12.6871 13.5832 12.1227 13.5832C11.7496 13.5832 11.406 13.5147 11.0919 13.3777C10.7801 13.2384 10.5369 13.0471 10.3621 12.8039C10.1897 12.5606 10.1035 12.2772 10.1035 11.9537H10.9998C10.9998 12.2465 11.0966 12.4732 11.2902 12.6338C11.4839 12.7944 11.7614 12.8747 12.1227 12.8747C12.4344 12.8747 12.6682 12.8121 12.8241 12.687C12.9823 12.5594 13.0614 12.3918 13.0614 12.1839Z" fill="#7C4DC4"/>
</svg>
