<svg width="16" height="15" viewBox="0 0 16 15" fill="none" xmlns="http://www.w3.org/2000/svg">
<path d="M8.89102 0.777996L10.5828 4.20603C10.7005 4.44445 10.9279 4.60966 11.1911 4.64783L14.9743 5.19758C15.637 5.29395 15.9013 6.1081 15.422 6.57524L12.6845 9.24358C12.4943 9.42912 12.4073 9.69664 12.4523 9.95853L13.0985 13.7264C13.2117 14.3863 12.519 14.8894 11.9264 14.5781L8.54277 12.7993C8.30748 12.6757 8.02619 12.6757 7.7909 12.7993L4.40729 14.5781C3.81468 14.8897 3.12194 14.3863 3.2352 13.7264L3.88132 9.95853C3.92638 9.69664 3.8394 9.42912 3.64916 9.24358L0.911673 6.57524C0.432324 6.10778 0.696717 5.29364 1.35942 5.19758L5.14259 4.64783C5.40573 4.60966 5.6332 4.44445 5.75085 4.20603L7.44265 0.777996C7.73864 0.177558 8.59471 0.177558 8.89102 0.777996Z" fill="#FFB300"/>
</svg>
